# xmcd
#
# Track frame offsets: 
#        150
#        13066
#        23410
#        40040
#        58702
#        66914
#        79764
#        101450
#        111455
#        124484
#        142128
#
# Disc length: 2043 seconds
#
# Revision: 1
# Processed by: cddbd v1.5.1PL2 Copyright (c) Steve Scherf et al.
# Submitted via: ExactAudioCopy v0.95b4
#
DISCID=9707f90b
DTITLE=Hank Williams III - Assjack Boot 3
DYEAR=2005
DGENRE=Country
TTITLE0=Tennessee Driver
TTITLE1=Wasting Away
TTITLE2=Chiking Gesture
TTITLE3=Gravel Pit
TTITLE4=Cutthroat
TTITLE5=Smoke the Fire
TTITLE6=What Ya Live For
TTITLE7=Gotta Buy Paw A Truck
TTITLE8=No Regrets
TTITLE9=Doing What I Want
TTITLE10=South Hoompa Jam
EXTD=
EXTT0=
EXTT1=
EXTT2=
EXTT3=
EXTT4=
EXTT5=
EXTT6=
EXTT7=
EXTT8=
EXTT9=
EXTT10=
PLAYORDER=
